<svg viewBox="0 0 617 617" xmlns="http://www.w3.org/2000/svg" fill-rule="evenodd" clip-rule="evenodd" stroke-linejoin="round" stroke-miterlimit="1.414"><path d="M126.35 28.316h363.602V294.46h97.892L308.15 588.137 28.46 294.46h97.89V28.316z" fill="none" stroke-width="55" stroke="#000"/><path d="M126.35 28.316h363.602V294.46h97.892L308.15 588.137 28.46 294.46h97.89V28.316z" fill="#ffb300"/><path d="M308.676 588.137l-181.39-559.82h362.78l-181.39 559.82z" fill="#ffca28"/><path d="M205.157 529.87H55.46v-31.503h88.824v-27.95H55.46v-90.48h149.697V411.2h-88.823v27.95h88.823v90.718zm88.823-31.503h27.95v-27.95h-27.95v27.95zm88.824 31.503H233.107v-90.718h88.823v-27.95h-88.823v-31.266h149.697V529.87zm88.823-31.503h27.95v-87.165h-27.95v87.165zm-60.874 31.503V320.72h60.874v59.216h88.823V529.87H410.753z" fill="none" stroke-width="50.002" stroke-linecap="round" stroke="#000"/><path d="M205.157 529.87H55.46v-31.503h88.824v-27.95H55.46v-90.48h149.697V411.2h-88.823v27.95h88.823v90.718zm88.823-31.503h27.95v-27.95h-27.95v27.95zm88.824 31.503H233.107v-90.718h88.823v-27.95h-88.823v-31.266h149.697V529.87zm88.823-31.503h27.95v-87.165h-27.95v87.165zm-60.874 31.503V320.72h60.874v59.216h88.823V529.87H410.753z" fill="#fff" fill-rule="nonzero"/></svg>