<?xml version="1.0" encoding="UTF-8" standalone="no"?>
<svg
   xmlns:dc="http://purl.org/dc/elements/1.1/"
   xmlns:cc="http://creativecommons.org/ns#"
   xmlns:rdf="http://www.w3.org/1999/02/22-rdf-syntax-ns#"
   xmlns:svg="http://www.w3.org/2000/svg"
   xmlns="http://www.w3.org/2000/svg"
   xmlns:sodipodi="http://sodipodi.sourceforge.net/DTD/sodipodi-0.dtd"
   xmlns:inkscape="http://www.inkscape.org/namespaces/inkscape"
   viewBox="0 0 608 608"
   fill-rule="evenodd"
   clip-rule="evenodd"
   stroke-linejoin="round"
   stroke-miterlimit="1.414"
   version="1.1"
   id="svg12"
   sodipodi:docname="logo-small.svg"
   inkscape:version="0.92.4 (5da689c313, 2019-01-14)">
  <metadata
     id="metadata18">
    <rdf:RDF>
      <cc:Work
         rdf:about="">
        <dc:format>image/svg+xml</dc:format>
        <dc:type
           rdf:resource="http://purl.org/dc/dcmitype/StillImage" />
      </cc:Work>
    </rdf:RDF>
  </metadata>
  <defs
     id="defs16" />
  <sodipodi:namedview
     pagecolor="#ffffff"
     bordercolor="#666666"
     borderopacity="1"
     objecttolerance="10"
     gridtolerance="10"
     guidetolerance="10"
     inkscape:pageopacity="0"
     inkscape:pageshadow="2"
     inkscape:window-width="1530"
     inkscape:window-height="836"
     id="namedview14"
     showgrid="false"
     inkscape:zoom="1.0978763"
     inkscape:cx="244.1731"
     inkscape:cy="331.66596"
     inkscape:window-x="70"
     inkscape:window-y="27"
     inkscape:window-maximized="1"
     inkscape:current-layer="svg12" />
  <path
     d="M630.988 320.63V188.324h99.863v-35.62l110.197 101.773L730.85 356.25v-35.62h-99.86z"
     fill="none"
     stroke-width="16.62"
     stroke="#000"
     transform="matrix(0 2.665 -2.7482 0 1003.016 -1657.67)"
     id="path2" />
  <path
     d="M121.86 23.913h363.604v266.135h97.89l-279.69 293.667L23.97 290.048h97.89V23.913z"
     fill="#FFB300"
     id="path4" />
  <path
     d="M303.664 583.797L122.274 23.975h362.78l-181.39 559.822z"
     fill="#FFCA28"
     id="path6" />
  <path
     d="M200.157 512.87H50.46v-31.503h88.824v-27.95H50.46v-90.48h149.697V394.2h-88.823v27.95h88.823v90.718zm88.823-31.503h27.95v-27.95h-27.95v27.95zm88.824 31.503H228.107v-90.718h88.823v-27.95h-88.823v-31.266h149.697V512.87zm88.823-31.503h27.95v-87.165h-27.95v87.165zm-60.874 31.503V303.72h60.874v59.216h88.823V512.87H405.753z"
     fill="none"
     stroke-width="45.004"
     stroke-linecap="round"
     stroke="#000"
     id="path8" />
  <path
     d="M200.157 512.87H50.46v-31.503h88.824v-27.95H50.46v-90.48h149.697V394.2h-88.823v27.95h88.823v90.718zm88.823-31.503h27.95v-27.95h-27.95v27.95zm88.824 31.503H228.107v-90.718h88.823v-27.95h-88.823v-31.266h149.697V512.87zm88.823-31.503h27.95v-87.165h-27.95v87.165zm-60.874 31.503V303.72h60.874v59.216h88.823V512.87H405.753z"
     fill="#fff"
     fill-rule="nonzero"
     id="path10" />
  <text
     xml:space="preserve"
     style="font-style:normal;font-weight:normal;font-size:322.60137939px;line-height:52.04999924;font-family:sans-serif;letter-spacing:0px;word-spacing:0px;fill:#ffb300;fill-opacity:1;stroke:none;stroke-width:10.99777317"
     x="193.43372"
     y="285.7019"
     id="text830"
     transform="scale(1.022657,0.97784496)"><tspan
       sodipodi:role="line"
       id="tspan828"
       x="193.43372"
       y="285.7019"
       style="font-weight:bold;fill:#ffb300;fill-opacity:1;stroke-width:10.99777317">3</tspan></text>
  <flowRoot
     xml:space="preserve"
     id="flowRoot832"
     style="fill:black;fill-opacity:1;stroke:none;font-family:sans-serif;font-style:normal;font-weight:normal;font-size:29.33333333px;line-height:52.05;letter-spacing:0px;word-spacing:0px"><flowRegion
       id="flowRegion834"><rect
         id="rect836"
         width="181.6174"
         height="223.85559"
         x="224.13559"
         y="79.86441" /></flowRegion><flowPara
       id="flowPara838" /></flowRoot>  <flowRoot
     xml:space="preserve"
     id="flowRoot840"
     style="fill:black;fill-opacity:1;stroke:none;font-family:sans-serif;font-style:normal;font-weight:normal;font-size:29.33333333px;line-height:52.05;letter-spacing:0px;word-spacing:0px"><flowRegion
       id="flowRegion842"><rect
         id="rect844"
         width="7.7288136"
         height="30.915255"
         x="293.69492"
         y="283.38983" /></flowRegion><flowPara
       id="flowPara846" /></flowRoot></svg>
