<svg viewBox="0 0 2175 606" xmlns="http://www.w3.org/2000/svg" fill-rule="evenodd" clip-rule="evenodd" stroke-linejoin="round" stroke-miterlimit="1.414"><path d="M630.988 320.63V188.324h99.863v-35.62l110.2 101.773-110.2 101.773v-35.62h-99.86z" fill="none" stroke-width="16.62" stroke="#000" transform="matrix(0 2.665 -2.7482 0 1002.24 -1658.936)"/><path d="M121.09 22.648h363.603v266.145h97.89L302.893 582.47 23.2 288.794h97.89V22.648z" fill="#FFB300"/><path d="M302.893 582.47L121.503 22.647h362.78l-181.39 559.82z" fill="#FFCA28"/><path d="M223.63 123.757h1862.4v287.2H223.63z"/><path d="M165.902 268.765h202.5v99.277H165.9z"/><path d="M430.133 388.4H188.357v-50.88h143.46v-45.142h-143.46V146.24h241.776v50.5h-143.46v45.14h143.46V388.4zm143.46-50.88h45.14v-45.142h-45.14v45.142zm143.46 50.88h-241.78V241.88h143.46v-45.14h-143.46v-50.5H717.05V388.4zm143.457-50.88h45.14V196.74h-45.14v140.78zm-98.318 50.88V50.602h98.318v95.64h143.458V388.4H762.192zm385.235 0h-98.317V146.24h241.776V388.4h-98.317V196.74h-45.148V388.4zm430.377 0h-241.776v-50.88h47.82V289.7h47.82v-47.82h47.82v-45.14h-143.46v-50.5h241.776v98.318h-47.82v47.82h-47.82v45.142h95.64v50.88zm143.46-50.88h45.14V196.74h-45.14v140.78zm-98.318 50.88V50.602h98.317v95.64h143.46V388.4h-241.777zm385.234-50.88h45.142V196.74h-45.14v140.78zm-98.317 50.88V146.24h143.46V50.603h98.316V388.4h-241.78z" fill="none" stroke-width="45.001" stroke-linecap="round" stroke="#000"/><path d="M430.133 388.4H188.357v-50.88h143.46v-45.142h-143.46V146.24h241.776v50.5h-143.46v45.14h143.46V388.4zm143.46-50.88h45.14v-45.142h-45.14v45.142zm143.46 50.88h-241.78V241.88h143.46v-45.14h-143.46v-50.5H717.05V388.4zm143.457-50.88h45.14V196.74h-45.14v140.78zm-98.318 50.88V50.602h98.318v95.64h143.458V388.4H762.192zm385.235 0h-98.317V146.24h241.776V388.4h-98.317V196.74h-45.148V388.4zm430.377 0h-241.776v-50.88h47.82V289.7h47.82v-47.82h47.82v-45.14h-143.46v-50.5h241.776v98.318h-47.82v47.82h-47.82v45.142h95.64v50.88zm143.46-50.88h45.14V196.74h-45.14v140.78zm-98.318 50.88V50.602h98.317v95.64h143.46V388.4h-241.777zm385.234-50.88h45.142V196.74h-45.14v140.78zm-98.317 50.88V146.24h143.46V50.603h98.316V388.4h-241.78z" fill="#fff" fill-rule="nonzero"/></svg>