<svg viewBox="0 0 608 608" xmlns="http://www.w3.org/2000/svg" fill-rule="evenodd" clip-rule="evenodd" stroke-linejoin="round" stroke-miterlimit="1.414"><path d="M630.988 320.63V188.324h99.863v-35.62l110.197 101.773L730.85 356.25v-35.62h-99.86z" fill="none" stroke-width="16.62" stroke="#000" transform="matrix(0 2.665 -2.7482 0 1003.016 -1657.67)"/><path d="M121.86 23.913h363.604v266.135h97.89l-279.69 293.667L23.97 290.048h97.89V23.913z" fill="#FFB300"/><path d="M303.664 583.797L122.274 23.975h362.78l-181.39 559.822z" fill="#FFCA28"/><path d="M200.157 512.87H50.46v-31.503h88.824v-27.95H50.46v-90.48h149.697V394.2h-88.823v27.95h88.823v90.718zm88.823-31.503h27.95v-27.95h-27.95v27.95zm88.824 31.503H228.107v-90.718h88.823v-27.95h-88.823v-31.266h149.697V512.87zm88.823-31.503h27.95v-87.165h-27.95v87.165zm-60.874 31.503V303.72h60.874v59.216h88.823V512.87H405.753z" fill="none" stroke-width="45.004" stroke-linecap="round" stroke="#000"/><path d="M200.157 512.87H50.46v-31.503h88.824v-27.95H50.46v-90.48h149.697V394.2h-88.823v27.95h88.823v90.718zm88.823-31.503h27.95v-27.95h-27.95v27.95zm88.824 31.503H228.107v-90.718h88.823v-27.95h-88.823v-31.266h149.697V512.87zm88.823-31.503h27.95v-87.165h-27.95v87.165zm-60.874 31.503V303.72h60.874v59.216h88.823V512.87H405.753z" fill="#fff" fill-rule="nonzero"/></svg>