<?xml version="1.0" encoding="UTF-8" standalone="no"?>
<svg
   xmlns:svg="http://www.w3.org/2000/svg"
   xmlns="http://www.w3.org/2000/svg"
   id="svg5265"
   preserveAspectRatio="xMidYMid meet"
   viewBox="0 0 16 16"
   height="608pt"
   width="608pt"
   version="1.0">
  <defs
     id="defs5269" />
  <g
     style="fill:#000000;stroke:none"
     id="g5263"
     transform="matrix(0.1,0,0,-0.1,0,608)">
    <path
       id="path5257"
       transform="matrix(0.19736842,0,0,-0.19736842,0,6080)"
       d="m 404.73633,10.242188 c -202.06715,0.1368 -242.9031,0.401613 -247.29297,1.996093 -6.25225,2.26176 -12.10728,7.582039 -15.83203,14.632813 l -2.92578,5.320312 -0.40039,162.558594 -0.26368,162.55664 -52.945308,0.40039 c -57.334404,0.40027 -56.536871,0.40123 -65.183594,8.25 -8.646723,7.84877 -11.5749611,24.20978 -6.253906,34.32031 1.46329,2.66051 13.303033,16.09509 26.472656,29.79688 20.885151,21.81605 23.413582,25.00978 21.285156,26.20703 -1.463294,0.66221 -4.788686,3.45907 -7.449218,5.98633 -9.045795,8.64728 -9.178378,9.17627 -8.779297,81.54297 0.39905,62.12392 0.530879,64.51933 3.191406,69.83984 l 2.660156,5.58789 -2.660156,5.05469 c -2.527507,4.78901 -2.792969,7.31479 -2.792969,33.78711 v 28.60351 l 3.72461,6.38282 c 1.995396,3.458 6.253104,7.98131 9.179687,9.97656 l 5.585938,3.59375 106.822269,0.40039 c 105.22398,0.26347 106.95059,0.2735 112.13867,-2.39258 l 5.32226,-2.66211 5.32227,2.66211 c 2.79357,1.46325 6.38242,2.66016 7.8457,2.66016 1.59637,0 16.89495,15.16491 43.36719,42.83398 44.16479,46.55912 48.68997,50.28516 60.5293,50.28516 11.83942,0 16.3606,-3.72597 60.52539,-50.15235 22.48147,-23.67856 41.50429,-42.96679 42.43554,-42.96679 0.79831,0 3.85855,-1.19691 6.78516,-2.66016 5.18806,-2.66051 5.18851,-2.66051 10.64258,0 5.32106,2.52725 8.37999,2.66016 110.94336,2.66016 100.96706,0 105.48833,-0.13689 110.27734,-2.52735 5.72012,-2.92701 11.04396,-8.38193 14.10352,-14.36718 1.86235,-3.85827 2.12695,-15.29772 2.12695,-109.48047 0,-118.12731 0.66601,-110.54421 -10.10937,-120.52149 l -5.98633,-5.58789 23.67773,-24.87695 c 13.03654,-13.70179 24.87654,-27.0011 26.33985,-29.66211 1.72935,-3.32576 2.52734,-7.58379 2.52734,-12.9043 0,-11.97304 -5.32095,-20.75232 -15.83008,-26.33984 -5.18796,-2.79275 -7.05068,-2.92692 -58.13281,-3.32617 l -52.94336,-0.40039 -0.26758,-162.55664 -0.39844,-162.558598 -2.92578,-5.455078 c -3.72481,-7.050773 -11.0407,-13.301996 -17.29297,-15.03125 -3.4586,-1.064 -82.21123,-1.46289 -247.16406,-1.46289 z M 538.42969,405.33203 h 39.90625 39.9082 v 38.57617 38.57618 h 57.86719 57.86719 v 97.77539 97.77343 h -97.7754 -97.77343 V 541.68164 Z M 74.167969,482.48438 h 97.773441 97.77539 v 20.62109 20.61719 h -57.86719 -57.86523 v 17.95898 17.95898 h 57.86523 57.86719 v 59.19922 59.19336 H 171.94141 74.033203 l 0.400391,-20.34961 0.398437,-20.22265 58.265629,-0.40039 58.13281,-0.26172 V 618.83984 600.88086 H 132.69922 74.167969 v -59.19922 z m 232.794921,0 h 97.77344 97.77539 v 97.77539 97.77343 h -97.77539 -97.77344 v -59.19336 -59.19922 h 57.86719 57.86523 v -17.95898 -17.95898 h -57.86523 -57.86719 v -20.61719 z m 311.28125,41.23828 v 56.53711 56.53711 h 18.625 18.62305 v -56.53711 -56.53711 h -18.62305 z m -231.46484,77.1582 v 17.95898 17.95704 h 17.95703 17.95898 v -17.95704 -17.95898 h -17.95898 z"
       style="display:inline;stroke-width:0.13302641" />
  </g>
</svg>
