<?xml version="1.0" standalone="no"?>
<!DOCTYPE svg PUBLIC "-//W3C//DTD SVG 20010904//EN"
 "http://www.w3.org/TR/2001/REC-SVG-20010904/DTD/svg10.dtd">
<svg version="1.0" xmlns="http://www.w3.org/2000/svg"
 width="608.000000pt" height="608.000000pt" viewBox="0 0 608.000000 608.000000"
 preserveAspectRatio="xMidYMid meet">
<g transform="translate(0.000000,608.000000) scale(0.100000,-0.100000)"
fill="#000000" stroke="none">
<path d="M1295 5818 c-46 -17 -81 -45 -107 -86 l-23 -37 -5 -1160 -5 -1160
-386 -5 -386 -5 -40 -28 c-80 -56 -113 -173 -70 -257 9 -19 91 -113 182 -209
91 -96 165 -177 165 -180 -1 -3 -18 -18 -39 -32 -21 -15 -48 -46 -60 -71 -21
-43 -21 -54 -21 -514 0 -441 1 -472 19 -507 18 -36 18 -38 0 -74 -17 -33 -19
-61 -19 -236 0 -222 6 -245 74 -305 60 -53 76 -54 851 -50 706 3 710 3 751 25
26 13 45 18 51 12 5 -5 32 -17 60 -27 46 -15 77 -44 336 -317 157 -165 300
-309 319 -320 24 -14 51 -20 98 -20 47 0 74 6 98 20 19 11 162 155 319 320
200 211 295 304 321 315 20 8 46 20 56 26 15 9 26 7 55 -10 36 -21 39 -21 781
-21 l745 0 45 25 c24 14 58 45 75 68 l30 44 3 746 2 746 -25 51 c-14 29 -40
63 -60 77 l-35 25 170 179 c94 98 178 195 188 214 41 84 9 202 -71 257 l-40
28 -386 5 -386 5 -5 1162 -5 1161 -30 43 c-16 23 -48 52 -70 63 l-40 21 -1725
2 c-1202 1 -1734 -2 -1755 -9z m3215 -1488 l0 -1080 -284 0 -284 0 -53 -28
c-39 -20 -62 -41 -84 -77 l-30 -48 -3 -199 -4 -198 -736 0 c-703 0 -739 -1
-779 -19 -41 -19 -42 -19 -79 0 -36 18 -64 19 -510 19 l-472 0 -122 128 -122
127 239 5 c258 5 269 8 325 67 61 64 58 -6 58 1243 l0 1140 1470 0 1470 0 0
-1080z m32 -1562 l3 -273 408 -3 407 -2 0 -690 0 -690 -690 0 -690 0 0 965 0
965 280 0 280 0 2 -272z m558 155 c-19 -21 -75 -80 -125 -130 l-90 -93 -67 0
-68 0 0 130 0 130 192 0 192 0 -34 -37z m-3010 -573 l0 -140 -410 0 -410 0 0
-130 0 -130 408 -2 407 -3 0 -415 0 -415 -692 -3 -693 -2 0 145 0 145 410 0
410 0 0 130 0 130 -410 0 -410 0 0 415 0 415 695 0 695 0 0 -140z m1630 -550
l0 -690 -690 0 -690 0 0 420 0 420 410 0 410 0 0 130 0 130 -410 0 -410 0 0
140 0 140 690 0 690 0 0 -690z m-611 -967 c-35 -38 -66 -68 -69 -68 -3 0 -34
30 -69 68 l-63 67 132 0 132 0 -63 -67z"/>
<path d="M4547 2203 c-4 -3 -7 -186 -7 -405 l0 -398 130 0 130 0 0 405 0 405
-123 0 c-68 0 -127 -3 -130 -7z"/>
<path d="M2902 1533 l3 -128 128 -3 127 -3 0 131 0 130 -130 0 -131 0 3 -127z"/>
</g>
</svg>
